# xmcd CD database file
#
# Track frame offsets:
#	150
#	2642
#	21367
#	24907
#	31930
#	54280
#	66872
#	68305
#	85090
#	95372
#	101617
#	115020
#
# Disc length: 1578 seconds
#
# Revision: 0
# Processed by: cddbd v1.5PL3 Copyright (c) Steve Scherf et al.
# Submitted via: CDex 1.50beta8
#
DISCID=8006280c
DTITLE=鳥肌　実 - 鳥肌黙示録（初期）
DYEAR=1900
DGENRE=Blues
TTITLE0=ア、カペラ
TTITLE1=廃人演説
TTITLE2=貧乏不遇欲情空腹
TTITLE3=動物の唄
TTITLE4=ガイセン活動
TTITLE5=僕の夢
TTITLE6=レイプ数え唄
TTITLE7=欲情のかませ犬
TTITLE8=スピーチ
TTITLE9=教練
TTITLE10=ビフテキ（協力・・ガス林）
TTITLE11=ア、カペラ
EXTD=
EXTT0=
EXTT1=
EXTT2=
EXTT3=
EXTT4=
EXTT5=
EXTT6=
EXTT7=
EXTT8=
EXTT9=
EXTT10=
EXTT11=
PLAYORDER=
